<svg width="288" height="291" viewBox="0 0 288 291" fill="none" xmlns="http://www.w3.org/2000/svg">
<rect width="288" height="291" fill="#F5F5F5"/>
<path d="M124.106 1.98011C124.571 0.324224 126.77 -0.0124834 127.708 1.42866L164.218 57.5005C164.83 58.4407 166.096 58.6935 167.022 58.0606L222.271 20.3159C223.691 19.3458 225.592 20.5015 225.384 22.2086L217.31 88.6303C217.175 89.7441 217.982 90.7513 219.098 90.8619L285.683 97.4607C287.394 97.6303 288.108 99.7376 286.851 100.912L237.971 146.604C237.152 147.37 237.122 148.661 237.907 149.463L284.672 197.318C285.874 198.547 285.066 200.62 283.348 200.712L216.534 204.295C215.413 204.355 214.562 205.325 214.646 206.444L219.71 273.162C219.84 274.877 217.889 275.946 216.514 274.912L163.028 234.709C162.132 234.035 160.856 234.23 160.202 235.142L121.195 289.506C120.192 290.904 118.011 290.468 117.622 288.793L102.491 223.615C102.238 222.522 101.135 221.852 100.048 222.13L35.2219 238.702C33.5558 239.128 32.1645 237.392 32.9434 235.859L63.2481 176.204C63.7563 175.204 63.3424 173.982 62.3311 173.496L2.01905 144.522C0.468923 143.777 0.519223 141.553 2.10142 140.879L63.6613 114.66C64.6935 114.221 65.1623 113.018 64.6999 111.996L37.1223 51.0328C36.4135 49.466 37.8818 47.7944 39.527 48.2952L103.538 67.7806C104.611 68.1073 105.743 67.4874 106.046 66.4071L124.106 1.98011Z" fill="#FF5C00"/>
<path d="M132.111 42.2111L159.108 90.3998L202.544 56.2789L192.25 110.547L247.457 112.329L204.688 147.283L245.833 184.135L190.602 183.42L198.433 238.098L156.583 202.049L127.436 248.968L118.55 194.452L66.0625 211.659L94.2969 164.185L43.0291 143.628L95.1736 125.41L69.1137 76.708L120.769 96.2697L132.111 42.2111Z" fill="#D03CC6"/>
<path d="M139.158 96.3022C139.252 95.2621 140.677 95.044 141.078 96.0083L151.707 121.583C151.979 122.24 152.831 122.41 153.335 121.908L172.973 102.379C173.713 101.642 174.945 102.391 174.632 103.387L166.335 129.811C166.122 130.489 166.665 131.167 167.373 131.107L194.97 128.769C196.011 128.681 196.473 130.046 195.593 130.609L172.252 145.517C171.653 145.9 171.633 146.768 172.215 147.177L194.858 163.125C195.711 163.727 195.188 165.07 194.152 164.934L166.69 161.352C165.985 161.26 165.412 161.912 165.594 162.6L172.688 189.371C172.955 190.381 171.691 191.073 170.985 190.304L152.25 169.907C151.769 169.383 150.911 169.514 150.608 170.158L138.834 195.226C138.39 196.171 136.977 195.889 136.93 194.846L135.69 167.178C135.658 166.468 134.916 166.017 134.27 166.315L109.137 177.951C108.19 178.39 107.289 177.265 107.923 176.436L124.757 154.443C125.189 153.879 124.911 153.056 124.225 152.87L97.4928 145.628C96.4848 145.355 96.5174 143.914 97.5367 143.687L124.569 137.661C125.263 137.506 125.578 136.697 125.172 136.113L109.349 113.383C108.752 112.526 109.703 111.443 110.63 111.924L135.212 124.683C135.843 125.011 136.604 124.594 136.668 123.886L139.158 96.3022Z" fill="#00A3DA"/>
<path d="M126.245 4.42788L148.872 136.351C149.027 137.254 150.213 137.491 150.703 136.717L222.272 23.6077L154.807 139.211C154.345 140.002 155.102 140.946 155.974 140.668L283.504 100.025L157.515 145.217C156.652 145.527 156.625 146.736 157.472 147.084L281.291 197.924L155.728 151.559C154.869 151.241 154.071 152.15 154.496 152.961L216.667 271.496L150.283 155.268C149.829 154.473 148.634 154.656 148.438 155.551L119.871 286.316L143.728 154.61C143.892 153.709 142.858 153.08 142.133 153.64L36.195 235.45L139.13 149.892C139.834 149.307 139.446 148.161 138.531 148.124L4.79165 142.698L138.64 143.322C139.556 143.327 139.995 142.2 139.318 141.583L40.355 51.4603L142.487 137.974C143.186 138.566 144.247 137.986 144.125 137.078L126.245 4.42788Z" fill="black"/>
<path d="M142.552 110.415L147.913 141.671C148.068 142.574 149.254 142.811 149.743 142.037L166.7 115.238L150.716 142.628C150.254 143.419 151.011 144.363 151.883 144.085L182.099 134.455L152.248 145.162C151.386 145.472 151.359 146.681 152.206 147.029L181.542 159.074L151.793 148.089C150.933 147.772 150.135 148.68 150.561 149.492L165.291 177.576L149.563 150.038C149.108 149.243 147.913 149.426 147.717 150.321L140.949 181.303L146.601 150.098C146.765 149.196 145.731 148.568 145.006 149.128L119.906 168.511L144.295 148.24C144.999 147.655 144.611 146.509 143.696 146.472L112.009 145.186L143.722 145.334C144.638 145.338 145.077 144.211 144.4 143.595L120.953 122.242L145.151 142.74C145.849 143.332 146.91 142.751 146.788 141.843L142.552 110.415Z" fill="white"/>
</svg>
